<?xml version="1.0" encoding="utf-8"?>
<!-- Generator: Adobe Illustrator 25.4.1, SVG Export Plug-In . SVG Version: 6.00 Build 0)  -->
<svg version="1.1" id="Слой_1" xmlns:svgjs="http://svgjs.com/svgjs"
	 xmlns="http://www.w3.org/2000/svg" xmlns:xlink="http://www.w3.org/1999/xlink" x="0px" y="0px" viewBox="0 0 512 512"
	 style="enable-background:new 0 0 512 512;" xml:space="preserve">
<style type="text/css">
	.st0{fill:#99BE55;}
</style>
<g transform="translate(0.000000,872.000000) scale(0.100000,-0.100000)">
	<path class="st0" d="M2588.5,8558.9c-90.7-352.2-83.9-335.6-201.8-473.9c-151.9-177.6-233.5-258.5-284.9-281.2
		c-43.1-18.1-153.4-91.5-198.8-130l-22.7-19.7l36.3,4.5c19.7,2.3,71.8,16.6,116.4,31c43.8,14.4,81.6,25.7,83.1,24.2
		c1.5-1.5-15.1-28-36.3-58.2c-43.8-62-43.1-64.2,23.4-73.3c96.7-12.8,143.6,0,143.6,40.8c0,24.2,43.8,70.3,91.5,96.7l39.3,21.2
		l-5.3-21.9c-2.3-12.1-6.8-46.9-9.1-76.3l-5.3-55.2l-102.8-100.5c-182.9-178.4-250.2-230.5-335.6-259.2
		c-30.2-9.8-99.8-40.8-154.9-68l-101.3-49.1l-29.5-64.2c-16.6-35.5-28-67.3-25.7-71.8c6.8-10.6,47.6-8.3,74.1,5.3
		c13.6,6.8,43.8,31.7,68,55.2l43.8,42.3l-41.6-71.8c-23.4-39.3-42.3-74.1-42.3-77.1c0-6,29.5,3,58.2,18.1c9.1,4.5,31.7,28,50.6,52.1
		c19.7,24.9,37.8,44.6,42.3,44.6c3.8,0,7.6-18.9,7.6-41.6s2.3-41.6,6-41.6c18.1,0,63.5,43.1,84.6,80.9
		c13.6,24.2,25.7,45.3,27.2,46.9c0.8,1.5,11.3-4.5,22.7-13.6c11.3-8.3,23.4-15.9,27.2-15.9c4.5,0,31.7,18.9,60.5,41.6
		c71.8,55.9,75.6,52.1,37-35.5c-11.3-27.2-20.4-37-36.3-40.8c-83.1-20.4-140.6-68.8-269.1-225.2c-72.6-89.9-174.6-176.1-324.2-274.4
		c-40.8-27.2-74.1-51.4-74.1-54.4c0-21.2,54.4-31,92.2-16.6c9.8,3.8,45.3,31,78.6,60.5c34,29.5,63.5,53.7,66.5,53.7
		c2.3,0-6-15.9-18.1-35.5c-22.7-35.5-29.5-70.3-14.4-70.3c12.1,0,55.2,46.9,86.2,92.2c17.4,26.5,41.6,48.4,83.9,74.1
		c32.5,20.4,60.5,35.5,61.2,34.8c1.5-0.8-4.5-21.9-12.8-46.1c-8.3-24.2-15.1-55.9-15.1-71l0.8-27.2l24.9,28.7
		c14.4,15.9,38.5,52.1,53.7,81.6c18.1,34,34.8,55.9,49.9,63.5c24.9,13.6,25.7,12.1,11.3-38.5c-24.9-84.6-11.3-122.4,21.2-59.7
		l15.9,30.2l3.8-43.8c2.3-23.4,5.3-43.8,7.6-44.6s11.3,0.8,20.4,3c21.2,5.3,40.1,43.8,81.6,162.5c43.8,125.5,72.6,158,55.9,63.5
		c-7.6-39.3-6.8-49.1,3-59.7c6-6.8,12.8-19.7,14.4-28c3-12.1,6-9.1,16.6,15.1c7.6,16.6,21.9,41.6,32.5,55.2
		c14.4,18.9,17.4,30.2,13.6,46.9c-8.3,39.3,0.8,24.9,22.7-34c11.3-31,23.4-56.7,27.2-56.7c6.8,0,26.5,63.5,31.7,102
		c1.5,12.8,3.8,0,4.5-28c0-28-3-59.7-7.6-71.8c-3.8-11.3-31.7-46.1-62-76.3c-49.9-50.6-70.3-63.5-257-165.5
		c-111.1-60.5-201-111.1-200.3-112.6c1.5-1.5,53.7,13.6,115.6,32.5c62.7,18.9,120.2,36.3,127.7,38.5c12.1,3,9.8-2.3-11.3-28.7
		c-52.9-67.3-70.3-80.1-144.4-104.3c-38.5-12.8-103.5-30.2-143.6-37.8c-68.8-14.4-82.4-20.4-211.6-96
		c-76.3-44.6-158.7-96-183.7-113.4c-47.6-34-92.2-77.1-86.2-82.4c2.3-2.3,40.8,9.8,86.2,26.5c65.8,24.9,99,42.3,160.2,86.9
		c42.3,31,78.6,55.9,81.6,55.9c3,0,3.8-13.6,2.3-30.2s-0.8-30.2,2.3-30.2s37.8,18.9,78.6,41.6c40.1,22.7,74.1,41.6,75.6,41.6
		s-5.3-14.4-15.1-31.7c-41.6-72.6-12.1-99,45.3-41.6c29.5,30.2,75.6,57.4,83.1,49.9c1.5-2.3,0.8-26.5-2.3-55.2
		c-5.3-51.4-6-52.1-31.7-61.2c-28.7-9.8-49.9-38.5-57.4-77.8c-6-31.7-12.8-35.5-71-36.3c-52.1-0.8-136-21.2-164.8-39.3
		c-15.1-9.8-18.9-9.8-24.9-0.8c-5.3,8.3-7.6,7.6-11.3-6c-3-10.6-26.5-29.5-63.5-51.4c-32.5-18.9-63.5-40.1-68.8-46.1
		c-5.3-6.8-23.4-18.9-40.1-27.2c-40.1-19.7-139.1-95.2-148.1-112.6c-12.1-21.9-9.1-37,7.6-37c8.3,0,15.1-2.3,15.1-5.3
		c0-3.8-31.7-43.8-70.3-90.7c-71.8-86.2-115.6-154.9-107.3-168.5c14.4-23.4,73.3,6,109.6,54.4l22.7,31.7v-30.2
		c0-37.8,17.4-55.9,53.7-55.9c32.5,0,77.8,36.3,110.3,86.9c11.3,18.9,27.2,34,34,34c7.6,0,15.1,7.6,18.1,18.9
		c3.8,16.6,39.3,52.9,45.3,46.9c0.8-0.8,0-16.6-2.3-34.8c-3.8-28-13.6-41.6-68-99c-53.7-56.7-74.1-71.8-127.7-98.3
		c-53.7-25.7-66.5-35.5-75.6-56.7c-6-14.4-10.6-29.5-10.6-34c0-13.6,22.7-7.6,41.6,11.3c21.9,21.2,23.4,18.9,7.6-11.3
		c-15.1-29.5-3-28.7,25.7,2.3c21.9,22.7,23.4,23.4,23.4,6.8c0-14.4,2.3-15.9,14.4-9.8c7.6,4.5,16.6,16.6,18.9,28
		c4.5,15.9,6.8,18.1,16.6,9.8c9.1-7.6,15.1-5.3,33.3,12.1c14.4,13.6,22.7,17.4,21.9,10.6c-0.8-22.7-12.1-37.8-37-50.6
		c-15.1-7.6-46.1-39.3-74.1-74.8c-26.5-34-72.6-83.1-103.5-108.8c-31-25.7-54.4-49.1-52.1-52.9c7.6-12.1,24.9-6.8,50.6,15.9
		l25.7,22.7l-3-21.2l-3-20.4l13.6,16.6c7.6,9.1,19.7,24.9,27.2,35.5c7.6,10.6,20.4,23.4,29.5,28c15.1,8.3,15.1,6.8,10.6-20.4
		c-4.5-28.7-4.5-29.5,8.3-13.6c7.6,9.1,19.7,27.2,27.2,40.8c16.6,30.2,22.7,26.5,12.8-7.6c-7.6-26.5-3.8-40.8,6.8-23.4
		c4.5,6.8,7.6,5.3,10.6-6.8c6.8-25.7,17.4-12.1,35.5,43.8c17.4,51.4,36.3,83.9,27.2,45.3c-2.3-10.6-2.3-25.7,0-32.5
		c3.8-9.8,8.3-6.8,20.4,12.8l15.9,24.9l4.5-18.9c5.3-19.7,9.8-14.4,17.4,18.9c2.3,9.1,3.8,5.3,4.5-9.1
		c0.8-34.8-37.8-75.6-126.2-130.8c-40.1-24.9-71-45.3-68.8-45.3c2.3,0,24.2,6.8,48.4,15.1l43.1,15.1l-10.6-16.6
		c-18.1-26.5-44.6-42.3-91.5-54.4c-54.4-14.4-194.2-105.1-194.2-127c0-9.8,53.7,17.4,89.2,45.3c22.7,18.1,31.7,21.9,31.7,13.6
		c0-15.9,7.6-15.1,30.2,3c24.2,18.9,32.5,18.9,22.7,0c-14.4-26.5,0-33.3,23.4-10.6c12.1,11.3,23.4,18.9,25.7,16.6
		c7.6-6.8-5.3-44.6-15.9-49.1c-5.3-1.5-12.1-13.6-14.4-25.7c-4.5-18.1-8.3-21.9-28.7-21.9c-31.7,0-74.1-22.7-141.3-74.8
		c-42.3-32.5-55.9-47.6-55.2-59.7c1.5-9.1-11.3-35.5-28-59c-30.2-43.1-37-63.5-22.7-63.5c4.5,0,13.6,6,21.2,13.6
		c12.1,12.8,13.6,12.8,24.2-0.8c15.9-19.7,31.7-10.6,64.2,37c37,53.7,40.8,55.2,31.7,13.6c-6-27.2-6-35.5,1.5-40.8
		c7.6-4.5,5.3-12.1-9.8-34.8c-10.6-15.9-19.7-33.3-19.7-38.5c0-15.1,20.4-11.3,32.5,5.3l10.6,15.9l4.5-15.9
		c5.3-21.2,31.7-18.9,48.4,3.8c7.6,10.6,23.4,31.7,34.8,47.6l21.2,27.2l-5.3-40.1c-4.5-33.3-3-40.1,5.3-37
		c6,1.5,15.9,19.7,21.9,39.3c9.8,30.2,16.6,38.5,46.1,53.7l34.8,17.4l-14.4-27.2c-15.1-30.2-17.4-55.9-6.8-76.3
		c5.3-9.1-1.5-38.5-22.7-101.3c-16.6-48.4-29.5-97.5-28-109.6l3-20.4l12.1,26.5c12.1,26.5,12.1,26.5,12.8,6
		c0.8-12.1,3.8-21.2,7.6-21.2c12.1,0,21.9,18.9,37.8,73.3c9.1,30.2,18.1,55.2,20.4,55.2c1.5,0,1.5-21.9-1.5-49.1
		c-6-54.4,7.6-71,15.1-18.9c2.3,16.6,6.8,43.1,9.1,59c3,22.7,39.3,77.1,50.6,77.1c1.5,0,0-17.4-3-39.3c-3.8-21.9-5.3-40.8-3-42.3
		c1.5-1.5,9.8,21.9,18.9,52.1c29.5,98.3,32.5,101.3,38.5,40.8c6-55.2-5.3-253.2-30.2-536.6c-8.3-92.2-11.3-159.5-7.6-161
		c3.8-1.5,6.8-6.8,6.8-11.3c0-6,17.4-9.8,47.6-11.3c40.8-1.5,50.6,0.8,68,15.1l18.9,17.4l-15.9,117.1
		c-12.8,96-15.9,153.4-15.9,321.2c0.8,200.3,6,299.3,17.4,286.4c3-3.8,11.3-33.3,18.9-65c7.6-32.5,15.9-60.5,19.7-62.7
		c3-1.5,11.3,7.6,17.4,20.4l11.3,23.4l5.3-34.8c6.8-45.3,18.9-53.7,18.9-12.8c0,39.3,10.6,33.3,21.9-11.3
		c11.3-43.8,26.5-45.3,19.7-1.5c-6.8,46.9,7.6,18.9,18.9-36.3c5.3-24.9,12.8-53.7,17.4-64.2c7.6-18.9,8.3-18.9,12.8,7.6l5.3,26.5
		l9.8-22.7c16.6-37,17.4-5.3,1.5,66.5c-7.6,36.3-11.3,69.5-7.6,74.8c3,5.3,6,17.4,6,27.2c0,31,13.6,16.6,30.2-32.5
		c17.4-52.9,27.2-61.2,34.8-28c7.6,34,9.8,39.3,18.1,39.3c3.8,0,7.6-6,7.6-14.4c0-22.7,15.9-61.2,23.4-56.7
		c3.8,2.3,6.8,12.8,6.8,24.2l0.8,20.4l11.3-20.4c6-12.1,14.4-21.2,18.9-21.2c8.3,0,2.3,28-13.6,67.3c-18.9,44.6-4.5,36.3,46.9-27.2
		c11.3-13.6,30.2-31.7,42.3-40.8c32.5-22.7,28.7-1.5-8.3,45.3c-34,43.1-35.5,46.1-16.6,46.1c6.8,0,21.2-13.6,31.7-30.2
		c18.9-30.2,50.6-58.2,58.2-49.9c9.8,9.8-16.6,56.7-49.1,87.7c-19.7,18.9-48.4,50.6-64.2,70.3c-22.7,27.2-37,37.8-63.5,45.3
		c-27.2,6.8-37,14.4-48.4,37c-7.6,15.1-20.4,29.5-28,31.7c-7.6,2.3-18.1,16.6-23.4,31c-5.3,15.9-14.4,26.5-21.9,26.5
		c-15.9,0-54.4,34.8-54.4,49.1c0,6-9.8,15.9-22.7,22.7c-24.9,12.8-29.5,29.5-10.6,37c26.5,9.8,38.5,2.3,72.6-44.6
		c19.7-27.2,39.3-49.1,43.8-49.1c3.8,0,7.6,14.4,7.6,31.7c0,29.5,0.8,31,12.1,19.7c6.8-6.8,24.2-31.7,38.5-55.9l25.7-44.6l-3,32.5
		c-3,22.7-1.5,30.2,4.5,26.5c55.2-32.5,65-40.8,69.5-64.2c9.1-44.6,12.1-51.4,24.2-51.4c9.8,0,11.3,6,6.8,34.8
		c-5.3,41.6,2.3,38.5,31.7-15.1c22.7-39.3,40.8-54.4,55.2-45.3c3.8,2.3,6.8,9.1,6.8,15.9c0,9.1,5.3,6.8,18.9-8.3
		c10.6-11.3,21.9-18.1,26.5-15.9c9.8,6-3,37-39.3,90.7c-17.4,24.9-30.2,52.1-30.2,61.2c1.5,19.7-24.9,48.4-43.8,48.4
		c-17.4,0-19.7,9.8-4.5,21.9c6,4.5,14.4,18.9,19.7,31c7.6,18.9,11.3,21.2,23.4,14.4c11.3-6,14.4-4.5,14.4,6.8
		c0,7.6-3.8,17.4-8.3,21.9c-6,6-3.8,21.9,8.3,60.5c26.5,77.8,84.6,207.8,80.1,176.1c-28-180.6-32.5-227.5-22.7-252.4
		c15.1-39.3,35.5,10.6,52.1,123.9c18.1,127.7,23.4,139.1,93.7,210.1c33.3,33.3,61.2,56.7,61.2,52.1c0-5.3-5.3-39.3-11.3-77.1
		c-13.6-80.1-15.1-127.7-3.8-108.1c4.5,6.8,26.5,68,49.9,136c47.6,137.6,77.1,202.6,85.4,188.2c3.8-5.3,4.5-51.4,2.3-103.5
		c-3.8-91.5-0.8-105.1,19.7-84.6c12.8,12.8,12.1-34.8-5.3-195c-28-253.9-38.5-392.3-41.6-543.4c-2.3-83.1-11.3-239.6-19.7-347.7
		c-21.9-269.8-21.9-270.6-3-296.3c13.6-18.9,72.6-55.9,122.4-77.8c39.3-16.6,101.3-0.8,111.1,29.5c2.3,7.6,19.7,19.7,38.5,27.2
		c34.8,12.8,34.8,13.6,30.2,41.6c-2.3,15.9-14.4,108.1-27.2,204.8c-47.6,372.6-55.9,521.5-39.3,709.7c5.3,55.9,9.1,153.4,9.1,215.4
		c0,98.3,25.7,402.1,34.8,411.2c9.8,10.6,26.5-31,55.9-139.1c17.4-66.5,39.3-137.6,47.6-157.2c15.1-37,30.2-43.1,34-13.6
		c1.5,9.1,7.6,18.9,12.8,20.4c6,2.3,16.6,21.9,23.4,43.1l13.6,39.3l9.8-34c6-18.9,9.1-42.3,6.8-52.9c-1.5-10.6,0.8-24.2,6-30.2
		s13.6-26.5,18.9-44.6c12.1-43.1,23.4-28.7,23.4,30.2c0,24.9,4.5,47.6,11.3,56.7c10.6,13.6,10.6,13.6,11.3-3
		c0-11.3,5.3-19.7,15.1-21.9c11.3-3,18.9-18.1,31-58.2c15.9-53.7,25.7-72.6,37.8-72.6c12.8,0,15.1,33.3,6.8,99
		c-4.5,38.5-6.8,71-4.5,72.6c1.5,2.3,15.1-33.3,29.5-77.8c19.7-59.7,24.2-84.6,18.9-93c-4.5-6.8-26.5-26.5-48.4-44.6
		c-44.6-35.5-59.7-55.2-67.3-86.2c-12.1-47.6,48.4-11.3,94.5,56.7c19.7,29.5,35.5,35.5,42.3,16.6c3-6.8-8.3-27.2-28.7-51.4
		c-66.5-77.1-62-98.3,8.3-43.1l38.5,30.2l10.6-25.7c11.3-28,28.7-42.3,33.3-28.7c1.5,5.3,7.6,9.1,12.8,9.1c6,0,14.4,6.8,18.9,15.1
		c9.1,16.6,22.7,20.4,22.7,6c0-5.3,3-14.4,6.8-20.4c11.3-18.1,29.5,3,34.8,40.1c3,18.1,8.3,37,11.3,42.3
		c11.3,18.1,37.8-12.8,37.8-42.3c0-51.4,25.7-33.3,49.1,34.8c21.2,62,40.8,87.7,41.6,55.2c0.8-7.6,5.3-27.2,11.3-43.1
		c9.8-27.2,9.1-35.5-8.3-98.3c-27.2-103.5-21.9-158,7.6-76.3l11.3,30.2v-35.5c0.8-37,9.1-49.9,21.9-34c3.8,4.5,16.6,44.6,28,88.4
		c25.7,98.3,34.8,116.4,28.7,55.9c-6-64.2,6.8-67.3,28.7-5.3c23.4,64.2,37,70.3,37,16.6c0-50.6,10.6-41.6,24.2,19.7l10.6,45.3
		l18.1-36.3c9.8-19.7,20.4-33.3,24.2-29.5c3,3,16.6,45.3,30.2,94.5c13.6,48.4,27.2,88.4,29.5,88.4c9.8,0,14.4-37,23.4-185.2
		c12.1-201.8,10.6-498.1-3.8-706.7c-6.8-93-10.6-171.6-8.3-173.8c2.3-2.3,31.7-3.8,65.8-3.8c62,0,112.6,15.9,120.9,36.3
		c1.5,5.3-6,101.3-18.1,213.1c-12.1,112.6-24.9,266.8-29.5,343.9c-3.8,77.1-12.8,184.4-18.9,238.1c-12.8,117.1-13.6,142.1-3.8,136
		c4.5-3,7.6,13.6,7.6,44.6c0,46.9,6.8,61.2,19.7,40.8c3-4.5,18.1-44.6,34-88.4c28.7-80.1,36.3-79.4,22.7,2.3l-6,37l39.3-40.8
		c35.5-37,40.1-45.3,44.6-86.2c7.6-60.5,18.9-102,27.2-102c9.1,0,9.1,67.3,0,113.4c-3,18.9-5.3,34.8-3.8,36.3s12.8-25.7,25.7-60.5
		c49.1-130.8,70.3-156.4,80.9-99.8l5.3,27.2l13.6-31c14.4-33.3,29.5-40.8,29.5-15.1c0,21.2-40.1,138.3-72.6,210.9
		c-21.9,49.9-23.4,58.2-13.6,68.8c23.4,25.7,6.8,105.8-28,131.5c-19.7,14.4-15.9,13.6,46.1-12.8c59-24.9,59-24.9,71.8-70.3
		c6.8-21.9,16.6-44.6,22.7-49.1c25.7-21.2,34,17.4,15.9,70.3c-6,15.9-8.3,28-5.3,26.5c3-1.5,28.7-28.7,56.7-60.5
		c27.2-31.7,56.7-60.5,65.8-62.7c18.9-6,37,8.3,37,28.7c0,14.4,2.3,13.6,24.9-8.3c25.7-24.9,50.6-31.7,50.6-13.6
		c0,15.1-59.7,93-104.3,136l-38.5,37l19.7,10.6c10.6,5.3,20.4,9.8,21.2,9.8c1.5,0,8.3-18.1,14.4-40.8c12.1-41.6,28-62,42.3-53.7
		c10.6,6.8,9.8,34-3.8,71c-6,16.6-8.3,31-5.3,30.2c3,0,25.7-24.2,50.6-53.7c56.7-66.5,72.6-77.8,93.7-66.5
		c9.1,4.5,15.9,15.1,15.9,23.4c0,14.4,2.3,13.6,26.5-7.6c15.1-12.8,31.7-23.4,37.8-23.4c24.9,0,11.3,24.2-75.6,133
		c-12.8,15.9-12.8,19.7-3.8,25.7c15.9,9.8-12.8,37.8-94.5,92.2c-95.2,62.7-139.1,82.4-192,86.9c-31,3-46.1,7.6-46.1,14.4
		c0,21.2-18.1,47.6-34.8,51.4c-15.1,3.8-18.1,9.8-18.1,34.8c0,16.6,3,30.2,7.6,30.2c3.8,0,18.9-9.8,32.5-22.7
		c14.4-12.1,30.2-22.7,34.8-22.7c12.1,0,9.8,24.2-4.5,45.3c-12.1,17.4-10.6,17.4,30.2-6c50.6-28.7,50.6-28.7,50.6-9.1
		c0,8.3,1.5,15.1,3.8,15.1s23.4-13.6,46.1-31c22.7-16.6,64.2-38.5,92.2-49.1l50.6-18.9l-24.9,25.7c-14.4,14.4-68.8,51.4-120.9,83.1
		c-74.1,43.1-107.3,58.2-145.1,65.8c-62,11.3-70.3,15.9-89.9,49.1c-17.4,30.2-15.1,31,29.5,15.1c18.1-6,34-10.6,35.5-9.1
		c0.8,1.5-21.9,15.9-51.4,32.5c-45.3,24.2-62,40.1-100.5,89.9c-42.3,55.9-46.1,63.5-46.1,101.3c-1.5,50.6,8.3,40.1,37.8-43.1
		c11.3-31.7,24.2-62.7,28-67.3c14.4-18.1,28.7-10.6,29.5,15.1c0,22.7,0.8,23.4,8.3,7.6c18.1-37,27.2-12.8,14.4,34
		c-12.1,41.6,9.1,29.5,38.5-21.9c11.3-18.9,26.5-39.3,33.3-45.3c14.4-11.3,14.4-15.9-2.3,52.9l-4.5,18.1l31.7-18.1
		c17.4-9.8,43.8-34,58.2-53.7c29.5-42.3,56.7-52.1,37-13.6c-17.4,33.3-14.4,33.3,30.2-3.8c41.6-33.3,72.6-43.1,83.9-24.9
		c3,5.3,0,12.1-8.3,16.6c-60.5,35.5-179.9,134.5-215.4,179.9c-56.7,71-99,108.8-133.8,119.4c-22.7,6.8-31,15.1-41.6,38.5
		c-15.1,36.3-5.3,37.8,31,6.8c24.2-20.4,28-21.9,43.1-11.3c15.9,9.8,17.4,9.1,25.7-12.1c9.1-20.4,40.1-52.1,52.9-52.1
		c2.3,0,3.8,9.8,1.5,22.7c-4.5,29.5,8.3,28.7,28.7,0c15.1-21.9,60.5-52.1,60.5-40.8c0,3-9.1,21.2-20.4,40.1l-20.4,34.8l28.7-24.2
		c18.1-16.6,35.5-24.9,49.9-24.9c26.5,0,27.2,1.5,5.3,45.3c-13.6,27.2-24.9,37.8-65.8,58.2c-27.2,13.6-68,31.7-89.9,40.8
		c-55.2,20.4-96,52.1-182.9,140.6c-71,71.8-73.3,75.6-76.3,114.1l-3.8,39.3l19.7-12.1c33.3-21.2,53.7-43.1,53.7-56.7
		c0-19.7,12.8-24.9,59.7-23.4c54.4,1.5,61.2,9.1,35.5,43.1c-12.1,15.1-19.7,28.7-18.9,30.2c1.5,0.8,23.4-4.5,48.4-12.1
		c24.9-7.6,52.1-14.4,60.5-14.4c12.8,0.8,10.6,3.8-11.3,22.7c-14.4,12.1-49.9,34.8-77.8,50.6c-36.3,19.7-67.3,46.1-106.6,89.2
		c-125.5,138.3-136.8,158.7-170.8,297.8c-18.9,76.3-22.7,77.1-40.1,8.3c-5.3-21.2-12.8-37.8-17.4-37.8c-3.8,0.8-23.4,11.3-44.6,24.2
		l-37.8,23.4l22.7,7.6c100.5,32.5-3.8,95.2-123.2,73.3c-40.8-6.8-48.4-6-70.3,6.8c-39.3,22.7-157.2,66.5-270.6,99
		c-71,20.4-107.3,34.8-120.9,48.4c-11.3,11.3-24.2,19.7-29.5,19.7s-9.1,7.6-9.1,17.4c0,19.7-34.8,77.1-59,99
		c-24.9,21.2-20.4,27.2,19.7,27.2c51.4,0,82.4-10.6,121.7-43.1c65.8-54.4,65-54.4,35.5,4.5c-21.9,43.1-26.5,57.4-18.9,65.8
		c15.1,18.9,27.2,12.1,80.1-46.9c34.8-39.3,63.5-63.5,89.2-75.6c20.4-9.8,38.5-16.6,40.1-15.1c1.5,1.5-12.8,34-31.7,71.8
		c-19.7,37.8-31.7,68.8-28,68.8c23.4,0,75.6-28,108.8-57.4c52.9-47.6,103.5-69.5,103.5-44.6c0,12.8-32.5,68-45.3,75.6
		c-3.8,2.3-7.6,8.3-7.6,12.1c0,4.5,15.1-4.5,33.3-19.7c37.8-30.2,69.5-37,82.4-17.4c7.6,11.3-2.3,24.9-68.8,91.5l-77.8,77.8
		l-126.2,37c-148.9,43.1-199.5,68-359,174.6c-132.3,89.2-171.6,121.7-171.6,145.1c0,16.6-6,16.6,107.3,2.3l43.1-6l22.7,53.7
		c12.1,29.5,24.9,54.4,28.7,55.2c3.8,1.5,22.7-21.9,42.3-52.1c55.2-86.2,58.2-89.9,86.2-102c46.1-18.9,49.1-12.8,24.9,60.5
		c-11.3,36.3-19.7,65.8-17.4,65.8s29.5-21.2,62-46.9c54.4-43.8,105.8-73.3,127.7-74.1c6,0-8.3,22.7-31.7,50.6
		c-23.4,28-40.8,51.4-39.3,53.7c1.5,1.5,28.7-3,60.5-9.1c74.1-15.9,125.5-15.9,125.5-0.8s-21.9,24.9-52.9,24.2
		c-37-0.8-76.3,20.4-133,71c-64.2,58.2-96,78.6-147.4,93.7c-53.7,15.1-117.9,53.7-195,117.1c-49.9,41.6-65.8,59.7-97.5,117.1
		c-68,122.4-85.4,172.3-92.2,260.7c-6,74.1-25.7,151.2-49.1,196.5l-9.8,18.9L2588.5,8558.9z M3062.4,6742
		c11.3-8.3,31.7-35.5,45.3-60.5c13.6-25.7,25.7-46.1,27.2-46.1s15.1,21.9,30.2,49.1c15.1,27.2,31,50.6,34.8,52.9
		c3.8,3,21.9-6,40.8-18.9c31-21.2,34-26.5,34-52.9c0-28.7,19.7-60.5,36.3-60.5c12.1,0,31.7,27.2,36.3,51.4c3,13.6,6.8,24.2,9.8,24.2
		c2.3,0,11.3-15.9,18.9-36.3c8.3-19.7,21.9-50.6,30.2-69.5l15.9-34l3.8,75.6l3.8,75.6l28.7-46.1c15.1-25.7,28-51.4,28-58.2
		c0-11.3,48.4-58.2,59.7-58.2c3.8,0-1.5,31.7-11.3,70.3c-9.8,37.8-18.1,72.6-18.1,76.3c0,3.8,27.2-18.9,60.5-51.4
		c62.7-61.2,82.4-68.8,91.5-34.8c3.8,15.9,5.3,16.6,9.8,6c9.1-19.7-44.6-114.9-81.6-144.4c-16.6-13.6-35.5-28-40.1-31
		c-5.3-3-58.2,13.6-117.1,36.3c-59.7,22.7-156.4,55.9-215.4,73.3c-95.2,28.7-108.1,34-108.1,48.4c0,37-69.5,117.9-114.9,133.8
		c-37.8,13.6-20.4,55.9,18.9,48.4C3032.1,6758.6,3051,6749.5,3062.4,6742z M3456.1,6254.5c0-2.3-3-12.1-7.6-22.7
		c-6-17.4-5.3-19.7,7.6-19.7c8.3,0,21.9,6.8,30.2,15.1c21.2,21.2,40.8,9.8,55.2-34c12.1-33.3,11.3-34-7.6-49.1
		c-18.1-14.4-21.2-14.4-35.5-3.8c-9.1,6.8-24.9,17.4-36.3,24.9c-10.6,6.8-21.9,21.2-24.2,32.5s-6,28.7-9.1,40.1
		c-3.8,16.6-2.3,19.7,11.3,19.7C3449.3,6257.5,3456.1,6256,3456.1,6254.5z M3057.8,5968c2.3-5.3,34.8-49.1,72.6-98.3
		c37.8-48.4,68.8-88.4,68.8-89.9s-8.3-3-18.9-3c-54.4-3.8-74.1-23.4-40.8-41.6c15.9-8.3,15.1-8.3-7.6-22.7
		c-31.7-18.9-34.8-18.1-46.9,10.6c-5.3,12.8-21.2,34.8-34.8,47.6s-24.9,31-24.9,39.3c0,28.7-9.1,39.3-61.2,67.3
		c-31,16.6-52.1,33.3-52.1,40.1c0,23.4,18.9,37,64.2,48.4C3035.1,5979.4,3053.3,5980.1,3057.8,5968z M3328.4,5851.7
		c28-31.7,24.2-37-34.8-52.1c-16.6-4.5-18.9-2.3-18.9,18.1c0,12.8,3,31.7,7.6,43.1c6,15.9,9.8,18.1,21.2,12.1
		C3310.3,5869,3321.6,5860,3328.4,5851.7z M3513.6,5734.5c6-9.1-15.9-28.7-32.5-28.7c-9.8,0-13.6,24.2-4.5,32.5
		C3484.1,5746.6,3507.5,5744.3,3513.6,5734.5z M3408.5,5702c7.6-15.9,17.4-25.7,24.2-24.9c6.8,1.5,12.1-2.3,11.3-6.8
		c-0.8-5.3-1.5-16.6-1.5-24.2c-1.5-12.1-17.4-19.7-78.6-38.5c-82.4-25.7-114.9-25.7-137.6-0.8c-11.3,12.8-11.3,15.9,8.3,52.9
		l21.2,39.3l3.8-40.1l4.5-40.1l13.6,30.2c18.1,40.1,18.9,40.1,34.8,18.9c11.3-15.1,15.1-16.6,25.7-8.3c6.8,5.3,12.1,18.9,12.1,29.5
		c0,18.9,18.1,38.5,36.3,39.3C3391.9,5728.5,3401.7,5716.4,3408.5,5702z M3202.9,5661.2c-5.3-24.9-9.1-27.2-26.5-15.9
		c-9.1,5.3-8.3,9.8,6.8,25.7C3205.2,5694.4,3209.7,5692.2,3202.9,5661.2z M2068.5,5460.2c-3-6-9.1-11.3-14.4-11.3
		c-24.9,0-59-65-71-134.5c-11.3-65-2.3-93.7,35.5-112.6c1.5,0-9.8-29.5-24.9-64.2c-15.9-34-31-70.3-34.8-80.1
		c-6.8-16.6-6.8-17.4-24.9-3.8c-15.9,12.1-16.6,14.4-5.3,22.7c18.9,13.6-0.8,27.2-42.3,29.5c-21.2,0.8-62.7,12.8-99.8,28
		c-34.8,15.1-69.5,28.7-77.8,30.2c-7.6,2.3-18.9,15.9-24.9,30.2c-6,15.1-14.4,28.7-18.9,31.7c-3.8,2.3-7.6,8.3-7.6,12.1
		c0,11.3,40.1-0.8,59.7-18.9l17.4-15.9l-5.3,18.9c-8.3,28-8.3,28.7,0,30.2c4.5,1.5,12.8-9.1,19.7-23.4
		c12.8-25.7,52.1-45.3,52.1-25.7c0,5.3,4.5,13.6,10.6,18.1c7.6,6.8,12.1,6,19.7-3c14.4-17.4,32.5-15.1,22.7,3
		c-11.3,22.7-9.1,27.2,6.8,12.8c24.9-22.7,25.7,0.8,0.8,32.5c-21.9,27.2-23.4,31-15.9,59.7c12.1,44.6,28,58.2,95.2,84.6
		c33.3,12.8,75.6,31.7,94.5,41.6c18.9,9.8,34.8,18.1,35.5,18.9C2071.5,5471.5,2070.8,5466.2,2068.5,5460.2z M1780.5,5361.9
		c-11.3-34.8-14.4-37.8-36.3-29.5c-10.6,4.5-7.6,9.8,15.9,34c15.9,16.6,29.5,29.5,30.2,29.5
		C1791.9,5395.9,1787.3,5380.8,1780.5,5361.9z M3231.7,5125.3c-4.5-25.7-3.8-27.2,8.3-17.4c15.1,12.8,14.4,14.4,34-40.1
		c15.1-40.1,15.1-46.1,5.3-61.2c-7.6-11.3-24.9-20.4-51.4-26.5c-21.9-5.3-41.6-9.8-43.8-9.1c-2.3,0-7.6,13.6-12.1,29.5
		c-6.8,24.9-6,34,9.8,66.5c9.1,20.4,17.4,43.8,17.4,50.6c0,6.8,3.8,21.9,7.6,32.5c6,16.6,9.8,18.9,18.1,11.3
		C3232.4,5155.6,3234.7,5144.2,3231.7,5125.3z M1719.3,5049.8l12.1-25.7l12.1,23.4c11.3,20.4,14.4,21.9,27.2,14.4
		c8.3-5.3,15.1-17.4,15.1-26.5c0-20.4,13.6-30.2,19.7-14.4c6.8,18.1,17.4,14.4,22.7-6.8c6.8-26.5,20.4-23.4,16.6,3.8
		c-4.5,31.7,4.5,28,18.9-7.6c6-16.6,15.1-30.2,19.7-30.2c4.5,0,6.8,4.5,5.3,9.8c-2.3,4.5-5.3,19.7-8.3,31.7l-4.5,22.7l26.5-27.2
		l27.2-27.2l-12.1-34.8l-11.3-34l-54.4,24.9c-30.2,13.6-68.8,29.5-86.9,34.8c-24.9,6.8-34.8,15.1-44.6,34.8
		c-6.8,14.4-20.4,31-29.5,37.8c-22.7,14.4-23.4,26.5-0.8,23.4C1699.7,5075.5,1711.8,5064.9,1719.3,5049.8z M1872.7,4851.7
		c2.3-4.5,2.3-14.4,0-23.4c-3.8-11.3-7.6-12.8-15.1-6.8c-16.6,14.4-19.7,37.8-3.8,37.8C1862.2,4859.3,1870.5,4855.5,1872.7,4851.7z
		 M1930.9,4793.5c-1.5-18.1-6-31-9.8-28.7c-3,2.3-4.5,8.3-3,13.6s4.5,18.9,7.6,31C1932.4,4839.6,1935.5,4831.3,1930.9,4793.5z
		 M3176.5,4762.6c-5.3-9.8-6.8-6-6.8,17.4c0,26.5,0.8,28,7.6,12.8C3181.8,4781.5,3181,4770.1,3176.5,4762.6z M1150.2,4535.1
		c7.6-5.3,4.5-12.1-12.8-31.7l-22.7-25.7l8.3,32.5C1132.1,4543.4,1133.6,4545.6,1150.2,4535.1z"/>
</g>
</svg>
